<?xml version="1.0" encoding="UTF-8" standalone="no"?>
<!DOCTYPE svg PUBLIC "-//W3C//DTD SVG 1.1//EN" "http://www.w3.org/Graphics/SVG/1.1/DTD/svg11.dtd">
<svg width="100%" height="100%" viewBox="0 0 256 64" version="1.1" xmlns="http://www.w3.org/2000/svg" xmlns:xlink="http://www.w3.org/1999/xlink" xml:space="preserve" xmlns:serif="http://www.serif.com/" style="fill-rule:evenodd;clip-rule:evenodd;stroke-linejoin:round;stroke-miterlimit:2;">
    <rect id="Artboard1" x="0" y="0" width="256" height="64" style="fill:none;"/>
    <g id="Artboard11" serif:id="Artboard1">
        <g transform="matrix(1.12085,0,0,1.12085,-29.9707,4.29863)">
            <text x="30.749px" y="32.012px" style="font-family:'Helvetica-Light', 'Helvetica', sans-serif;font-weight:300;font-size:28px;fill:white;fill-opacity:0.87;">Consent</text>
            <text x="135.021px" y="32.012px" style="font-family:'Helvetica-Bold', 'Helvetica';font-weight:700;font-size:28px;fill:white;fill-opacity:0.87;">Right</text>
        </g>
        <g transform="matrix(1,0,0,1,189.066,-7.5)">
            <g transform="matrix(2.03219,0,0,2.03219,5.04909,6.90771)">
                <path d="M15.102,31.238C15.371,31.437 15.691,31.539 16,31.539C16.309,31.539 16.629,31.437 16.898,31.238L19.07,29.629C24.352,25.699 27.5,19.43 27.5,12.848L27.5,6.039C27.5,5.43 27.129,4.867 26.559,4.648L16.559,0.648C16.199,0.5 15.801,0.5 15.441,0.648L5.441,4.648C4.871,4.867 4.5,5.43 4.5,6.039L4.5,12.848C4.5,19.43 7.648,25.699 12.93,29.629L15.102,31.238Z" style="fill:rgb(18,18,18);fill-opacity:0.87;fill-rule:nonzero;"/>
            </g>
            <g transform="matrix(0.620925,0,0,0.620925,17.4581,19.0095)">
                <g transform="matrix(1.68285,0.562548,-0.562548,1.68285,18.7498,5.94029)">
                    <path d="M19.91,10.731C19.359,10.778 18.953,11.262 19,11.809C19.004,11.902 19.004,11.996 19,12.09C19,15.957 15.867,19.09 12,19.09L6.41,19.09L7.051,18.461C7.438,18.07 7.438,17.442 7.051,17.051C5.227,15.238 4.547,12.574 5.273,10.11C5.602,8.994 6.195,8 6.979,7.197C7.927,6.225 9.154,5.531 10.531,5.238C11.453,5.055 12.406,5.055 13.328,5.238C13.883,5.352 14.418,4.992 14.531,4.442C14.641,3.887 14.281,3.352 13.73,3.238C12.539,3 11.312,3 10.121,3.238C5.961,4.149 2.996,7.832 3,12.09C3.008,14.137 3.715,16.117 5,17.711L3.289,19.379C3.008,19.668 2.922,20.098 3.078,20.469C3.234,20.844 3.598,21.086 4,21.09L12,21.09C16.969,21.09 21,17.059 21,12.09L21,11.649C20.98,11.383 20.852,11.133 20.648,10.961C20.441,10.789 20.176,10.703 19.91,10.731Z" style="fill:rgb(0,176,255);fill-opacity:0.79;fill-rule:nonzero;"/>
                </g>
                <g transform="matrix(-2.76415,0,0,2.76415,95.987,11.5032)">
                    <path d="M23.576,5.528C23.763,5.715 23.869,5.973 23.869,6.239C23.869,6.504 23.763,6.762 23.576,6.95L21.654,8.868C21.467,9.059 21.213,9.165 20.943,9.165C20.677,9.165 20.424,9.059 20.236,8.868L16.154,4.79C15.857,4.547 15.724,4.153 15.814,3.782C15.904,3.407 16.197,3.118 16.576,3.036C16.951,2.954 17.338,3.094 17.576,3.399L20.943,6.751L22.154,5.528C22.342,5.34 22.599,5.235 22.865,5.235C23.131,5.235 23.388,5.34 23.576,5.528Z" style="fill:rgb(1,182,54);fill-opacity:0.9;fill-rule:nonzero;"/>
                </g>
            </g>
        </g>
    </g>
</svg>
